<svg xmlns="http://www.w3.org/2000/svg" viewBox="0 0 110 88" fill="none" stroke="white" stroke-width="2">
  <rect x="0" y="0" width="110" height="88" fill="black" fill-opacity="1" stroke="none" />
  <rect x="0" y="0" width="110" height="88" stroke-width="4" />

  <path
    d="M 56 26 L 66.5 33 L 66.5 46 L 57.5 56 L 22.5 56 L 56 26 L 64.5 9 L 75.9 9 L 79.5 12 L 79.5 48 L 60.5 65 L 48.5 65 L 48.5 55" />

  <!-- [] -->
  <path d="M 66 33 L 75 33 L 75 46 L 66 46" stroke-width="1.5" />

  <!-- Terminal -->
  <path d="M 45.8 41.5 L 49.8 45.5 L 45.8 49.5" stroke-width="1.3" />
  <path d="M 50 50.4 L 56 50.4" stroke-width="1.3" />
  <path d="M 16 8 L 23 15 L 16 22" />
  <path d="M 25 22 L 35 22" />

  <!--Legs-->
  <path d="M 48.4 65.56 L 54 77" />
  <path d="M 60.5 65.5 L 66 77" />
  <path d="M 48 77 L 58 77" />
  <path d="M 60 77 L 70 77" />

  <!-- Tail feathers-->
  <path d="M 45 56 L 29 77 L 16 77 L 32 56" />

  <!-- beak -->
  <path d="M 79 12 L 90 15.5 L 94 20 L 79 20" />

  <!--Eye-->
  <rect x="70.5" y="13.6" width="4" height="3" fill="white" stroke="none" />

  <!-- Semicolon -->
  <circle cx="83" cy="66.5" r="1" fill="white" />
  <path d="M 82 72.6 L 81 76.6 L 82 76.6 L 84 72.6 L 81 72.6" fill="white" />

  <!--Eraser-->
  <path d="M 77 31 L 85 31" stroke="black" fill-opacity="1" stroke-width="3" />
  <path d="M 71 30 L 71 47" stroke="black" fill-opacity="1" stroke-width="1.7" />
  <path d="M 46.2 54 L 46.2 58" stroke="black" fill-opacity="1" stroke-width="2.6" />
  <path d="M 41 58.3 L 45 58.3" stroke="black" fill-opacity="1" stroke-width="2.6" />
</svg>
